<svg xmlns="http://www.w3.org/2000/svg" viewBox="0 0 32 32"><defs><style>.cls-1{fill:#e6e6e6;}.cls-2{fill:#ccc;}.cls-3{fill:#3f464d;}.cls-4{fill:#363f47;}</style></defs><title>Computer, desktop, pc</title><g id="_01" data-name="01"><polygon class="cls-1" points="19.67 25 19 23 13 23 12.33 25 11 29 21 29 19.67 25" id="id_101" style="fill: rgb(255, 255, 255);"></polygon><polygon class="cls-2" points="19.67 25 12.33 25 13 23 19 23 19.67 25" id="id_102" style="fill: rgb(255, 255, 255);"></polygon><path class="cls-1" d="M27.93,5.07A1.251,1.251,0,0,0,27.5,5H4.5A1.5,1.5,0,0,0,3,6.5v16A1.5,1.5,0,0,0,4.5,24h23a1.386,1.386,0,0,0,.5-.09,1.5,1.5,0,0,0,1-1.41V6.5A1.485,1.485,0,0,0,27.93,5.07Z" id="id_103" style="fill: rgb(255, 255, 255);"></path><path class="cls-3" d="M3,20v2.5A1.5,1.5,0,0,0,4.5,24h23A1.5,1.5,0,0,0,29,22.5V20Z" id="id_104"></path><rect class="cls-2" x="16" y="4" width="13" height="25" rx="1.5" ry="1.5" id="id_105"></rect><path class="cls-2" d="M27.93,5.07A1.251,1.251,0,0,0,27.5,5H14.09a1.386,1.386,0,0,0-.09.5v22A1.5,1.5,0,0,0,15.5,29h11A1.5,1.5,0,0,0,28,27.5V5.5A1.251,1.251,0,0,0,27.93,5.07Z" id="id_106"></path><rect class="cls-1" x="15" y="4" width="14" height="25" rx="1.5" ry="1.5" id="id_107" style="fill: rgb(255, 255, 255);"></rect><rect class="cls-3" x="18" y="9" width="9" height="1" id="id_108"></rect><rect class="cls-3" x="18" y="12" width="9" height="1" id="id_109"></rect><circle class="cls-3" cx="19" cy="25" r="1" id="id_110"></circle><rect class="cls-4" x="14" y="20" width="1" height="4" id="id_111"></rect></g></svg>